<?xml version="1.0" standalone="no"?><svg xmlns="http://www.w3.org/2000/svg" viewBox="0 0 1440 320"><path fill="#343A40" fill-opacity="1" d="M0,160L24,138.7C48,117,96,75,144,96C192,117,240,203,288,202.7C336,203,384,117,432,112C480,107,528,181,576,229.3C624,277,672,299,720,304C768,309,816,299,864,277.3C912,256,960,224,1008,202.7C1056,181,1104,171,1152,186.7C1200,203,1248,245,1296,245.3C1344,245,1392,203,1416,181.3L1440,160L1440,0L1416,0C1392,0,1344,0,1296,0C1248,0,1200,0,1152,0C1104,0,1056,0,1008,0C960,0,912,0,864,0C816,0,768,0,720,0C672,0,624,0,576,0C528,0,480,0,432,0C384,0,336,0,288,0C240,0,192,0,144,0C96,0,48,0,24,0L0,0Z"></path></svg>